<?xml version="1.0" encoding="utf-8"?>
<!-- Generator: Adobe Illustrator 25.2.0, SVG Export Plug-In . SVG Version: 6.00 Build 0)  -->
<svg version="1.1" id="Layer_1" xmlns="http://www.w3.org/2000/svg" xmlns:xlink="http://www.w3.org/1999/xlink" x="0px" y="0px"
	 viewBox="0 0 2518.5 3331.6" style="enable-background:new 0 0 2518.5 3331.6;" xml:space="preserve">
<style type="text/css">
	.st0{fill:#161F28;}
	.st1{fill-rule:evenodd;clip-rule:evenodd;fill:#161F28;}
</style>
<g id="Hero_Shape">
	<circle class="st0" cx="815" cy="73.4" r="61.5"/>
	<circle id="Ellipse_1_copy_2" class="st0" cx="1191.8" cy="61.5" r="61.5"/>
	<circle id="Ellipse_1_copy_3" class="st0" cx="1112.5" cy="208.2" r="61.5"/>
	<circle id="Ellipse_1_copy_4" class="st0" cx="874.5" cy="228.1" r="61.5"/>
	<circle id="Ellipse_1_copy_10" class="st0" cx="1148.2" cy="418.5" r="61.5"/>
	<circle id="Ellipse_1_copy_5" class="st0" cx="997.5" cy="307.4" r="61.5"/>
	<circle id="Ellipse_1_copy_6" class="st0" cx="779.3" cy="418.5" r="61.5"/>
	<circle id="Ellipse_1_copy_13" class="st0" cx="989.6" cy="466" r="61.5"/>
	<circle id="Ellipse_1_copy_7" class="st0" cx="741.7" cy="289.5" r="31.7"/>
	<circle id="Ellipse_1_copy_8" class="st0" cx="876.5" cy="357" r="31.7"/>
	<circle id="Ellipse_1_copy_15" class="st0" cx="874.5" cy="513.6" r="45.6"/>
	<path id="Ellipse_1_copy_17" class="st1" d="M823,575.1c25.2,0,45.6,20.4,45.6,45.6s-20.4,45.6-45.6,45.6s-45.6-20.4-45.6-45.6
		c0,0,0,0,0,0C777.4,595.5,797.8,575.1,823,575.1C823,575.1,823,575.1,823,575.1z"/>
	<path id="Ellipse_1_copy_18" class="st1" d="M934,666.3c25.2,0,45.6,20.4,45.6,45.6s-20.4,45.6-45.6,45.6
		c-25.2,0-45.6-20.4-45.6-45.6C888.4,686.8,908.8,666.3,934,666.3C934,666.3,934,666.3,934,666.3z"/>
	<circle id="Ellipse_1_copy_20" class="st0" cx="1037.1" cy="783.3" r="45.6"/>
	<path id="Ellipse_1_copy_14" class="st1" d="M947.9,555.3c17.5,0,31.7,14.2,31.7,31.7c0,17.5-14.2,31.7-31.7,31.7
		c-17.5,0-31.7-14.2-31.7-31.7c0,0,0,0,0,0C916.2,569.5,930.4,555.3,947.9,555.3z"/>
	<path id="Ellipse_1_copy_21" class="st1" d="M1150.2,706c17.5,0,31.7,14.2,31.7,31.7s-14.2,31.7-31.7,31.7
		c-17.5,0-31.7-14.2-31.7-31.7l0,0C1118.5,720.2,1132.7,706,1150.2,706z"/>
	<circle id="Ellipse_1_copy_22" class="st0" cx="1130.4" cy="959.8" r="31.7"/>
	<path id="Ellipse_1_copy_29" class="st1" d="M1078.8,1015.4c17.5,0,31.7,14.2,31.7,31.7s-14.2,31.7-31.7,31.7
		c-17.5,0-31.7-14.2-31.7-31.7l0,0C1047.1,1029.6,1061.3,1015.4,1078.8,1015.4C1078.8,1015.4,1078.8,1015.4,1078.8,1015.4z"/>
	<circle id="Ellipse_1_copy_32" class="st0" cx="918.2" cy="1084.8" r="53.5"/>
	<path id="Ellipse_1_copy_30" class="st1" d="M1150.2,1063c21.9,0,39.7,17.8,39.7,39.7c0,21.9-17.8,39.7-39.7,39.7
		c-21.9,0-39.7-17.8-39.7-39.7S1128.3,1063,1150.2,1063C1150.2,1063,1150.2,1063,1150.2,1063z"/>
	
		<ellipse id="Ellipse_1_copy_71" transform="matrix(0.1602 -0.9871 0.9871 0.1602 -113.8974 2317.2876)" class="st0" cx="1304.9" cy="1225.6" rx="39.7" ry="39.7"/>
	<circle id="Ellipse_1_copy_74" class="st0" cx="1253.3" cy="1404.1" r="39.7"/>
	
		<ellipse id="Ellipse_1_copy_75" transform="matrix(0.1602 -0.9871 0.9871 0.1602 -366.2115 2552.1978)" class="st0" cx="1316.8" cy="1491.3" rx="27.8" ry="27.8"/>
	<path id="Ellipse_1_copy_81" class="st1" d="M1197.8,1463.5c15.3,0,27.8,12.4,27.8,27.8c0,15.3-12.4,27.8-27.8,27.8
		c-15.3,0-27.8-12.4-27.8-27.8C1170,1476,1182.4,1463.6,1197.8,1463.5C1197.8,1463.5,1197.8,1463.5,1197.8,1463.5z"/>
	<path id="Ellipse_1_copy_82" class="st1" d="M1598.4,1439.7c15.3,0,27.8,12.4,27.8,27.8s-12.4,27.8-27.8,27.8
		c-15.3,0-27.8-12.4-27.8-27.8C1570.6,1452.2,1583,1439.8,1598.4,1439.7C1598.4,1439.7,1598.4,1439.7,1598.4,1439.7z"/>
	<circle id="Ellipse_1_copy_103" class="st0" cx="1737.2" cy="1285.1" r="27.8"/>
	<circle id="Ellipse_1_copy_108" class="st0" cx="2250.8" cy="1176" r="33.7"/>
	<circle id="Ellipse_1_copy_115" class="st0" cx="2306.3" cy="1287.1" r="41.7"/>
	<circle id="Ellipse_1_copy_116" class="st0" cx="2197.3" cy="1336.6" r="51.6"/>
	<circle id="Ellipse_1_copy_117" class="st0" cx="2385.7" cy="1402.1" r="61.5"/>
	<circle id="Ellipse_1_copy_118" class="st0" cx="2480.9" cy="1493.3" r="29.7"/>
	<path id="Ellipse_1_copy_119" class="st1" d="M2488.8,1360.4c16.4,0,29.7,13.3,29.7,29.8s-13.3,29.7-29.8,29.7
		c-16.4,0-29.7-13.3-29.7-29.7C2459,1373.7,2472.4,1360.4,2488.8,1360.4C2488.8,1360.4,2488.8,1360.4,2488.8,1360.4z"/>
	<circle id="Ellipse_1_copy_120" class="st0" cx="2278.6" cy="1417.9" r="29.7"/>
	<circle id="Ellipse_1_copy_121" class="st0" cx="2338.1" cy="1489.3" r="29.8"/>
	<circle id="Ellipse_1_copy_122" class="st0" cx="2201.2" cy="1475.5" r="43.6"/>
	<circle id="Ellipse_1_copy_123" class="st0" cx="2078.3" cy="1459.6" r="43.6"/>
	<circle id="Ellipse_1_copy_124" class="st0" cx="1933.5" cy="1481.4" r="61.5"/>
	<circle id="Ellipse_1_copy_125" class="st0" cx="1802.6" cy="1402.1" r="61.5"/>
	<circle id="Ellipse_1_copy_126" class="st0" cx="1695.5" cy="1449.7" r="33.7"/>
	<circle id="Ellipse_1_copy_127" class="st0" cx="1810.6" cy="1525" r="33.7"/>
	<circle id="Ellipse_1_copy_128" class="st0" cx="1937.5" cy="1640" r="49.6"/>
	<circle id="Ellipse_1_copy_132" class="st0" cx="1691.6" cy="1798.7" r="49.6"/>
	<circle id="Ellipse_1_copy_133" class="st0" cx="1685.6" cy="1681.7" r="23.8"/>
	<circle id="Ellipse_1_copy_134" class="st0" cx="1884" cy="1729.3" r="23.8"/>
	<circle id="Ellipse_1_copy_139" class="st0" cx="1947.4" cy="1792.7" r="23.8"/>
	<circle id="Ellipse_1_copy_140" class="st0" cx="1796.7" cy="2030.7" r="55.5"/>
	<circle id="Ellipse_1_copy_145" class="st0" cx="1893.9" cy="2246.9" r="53.5"/>
	<circle id="Ellipse_1_copy_157" class="st0" cx="1743.1" cy="2318.3" r="69.4"/>
	<circle id="Ellipse_1_copy_161" class="st0" cx="1501.2" cy="2346" r="69.4"/>
	<ellipse id="Ellipse_1_copy_168" class="st0" cx="1223.6" cy="2421.4" rx="69.4" ry="69.4"/>
	<circle id="Ellipse_1_copy_169" class="st0" cx="1160.1" cy="2306.4" r="37.7"/>
	<path id="Ellipse_1_copy_173" class="st1" d="M1390.1,2419.4c20.8,0,37.7,16.9,37.7,37.7c0,20.8-16.9,37.7-37.7,37.7
		c-20.8,0-37.7-16.9-37.7-37.7c0,0,0,0,0,0C1352.5,2436.3,1369.3,2419.4,1390.1,2419.4z"/>
	<circle id="Ellipse_1_copy_175" class="st0" cx="1443.7" cy="2558.2" r="55.5"/>
	<circle id="Ellipse_1_copy_177" class="st0" cx="1564.7" cy="2683.2" r="65.4"/>
	<circle id="Ellipse_1_copy_174" class="st0" cx="1364.4" cy="2371.8" r="27.8"/>
	<circle id="Ellipse_1_copy_170" class="st0" cx="1064.9" cy="2227" r="45.6"/>
	<circle id="Ellipse_1_copy_195" class="st0" cx="886.4" cy="2120" r="33.7"/>
	<circle id="Ellipse_1_copy_216" class="st0" cx="648.5" cy="2258.8" r="29.8"/>
	<circle id="Ellipse_1_copy_217" class="st0" cx="880.5" cy="2471" r="47.6"/>
	<circle id="Ellipse_1_copy_218" class="st0" cx="706" cy="2471" r="47.6"/>
	<circle id="Ellipse_1_copy_219" class="st0" cx="787.3" cy="2568.1" r="29.8"/>
	<path id="Ellipse_1_copy_223" class="st1" d="M735.7,2625.7c20.8,0,37.7,16.9,37.7,37.7c0,20.8-16.9,37.7-37.7,37.7
		c-20.8,0-37.7-16.9-37.7-37.7l0,0C698,2642.5,714.9,2625.7,735.7,2625.7C735.7,2625.7,735.7,2625.7,735.7,2625.7z"/>
	<circle id="Ellipse_1_copy_224" class="st0" cx="497.7" cy="2607.8" r="37.7"/>
	<circle id="Ellipse_1_copy_225" class="st0" cx="571.1" cy="2744.6" r="59.5"/>
	<circle id="Ellipse_1_copy_226" class="st0" cx="852.7" cy="2978.6" r="59.5"/>
	<circle id="Ellipse_1_copy_227" class="st0" cx="430.3" cy="3000.5" r="25.8"/>
	<circle id="Ellipse_1_copy_228" class="st0" cx="475.9" cy="2835.9" r="43.6"/>
	<path id="Ellipse_1_copy_229" class="st1" d="M470,2697c12,0,21.8,9.8,21.8,21.8c0,12-9.8,21.8-21.8,21.8c-12,0-21.8-9.8-21.8-21.8
		C448.2,2706.8,457.9,2697.1,470,2697C470,2697,470,2697,470,2697z"/>
	<path id="Ellipse_1_copy_230" class="st1" d="M680.2,2716.9c12,0,21.8,9.8,21.8,21.8c0,12-9.8,21.8-21.8,21.8
		c-12,0-21.8-9.8-21.8-21.8C658.4,2726.6,668.1,2716.9,680.2,2716.9C680.2,2716.9,680.2,2716.9,680.2,2716.9z"/>
	<circle id="Ellipse_1_copy_231" class="st0" cx="894.4" cy="2865.6" r="21.8"/>
	<circle id="Ellipse_1_copy_236" class="st0" cx="826.9" cy="2814" r="21.8"/>
	<path id="Ellipse_1_copy_241" class="st1" d="M737.7,2962.8c15.3,0,27.8,12.4,27.8,27.8c0,15.3-12.4,27.8-27.8,27.8
		c-15.3,0-27.8-12.4-27.8-27.8C709.9,2975.2,722.4,2962.8,737.7,2962.8C737.7,2962.8,737.7,2962.8,737.7,2962.8z"/>
	<circle id="Ellipse_1_copy_242" class="st0" cx="539.4" cy="3010.4" r="15.9"/>
	<circle id="Ellipse_1_copy_237" class="st0" cx="569.1" cy="2873.5" r="21.8"/>
	<circle id="Ellipse_1_copy_239" class="st0" cx="434.3" cy="2921.1" r="21.8"/>
	<circle id="Ellipse_1_copy_240" class="st0" cx="630.6" cy="2978.6" r="47.6"/>
	<circle id="Ellipse_1_copy_238" class="st0" cx="511.6" cy="2943" r="31.7"/>
	<circle id="Ellipse_1_copy_232" class="st0" cx="664.3" cy="2865.6" r="41.6"/>
	<path id="Ellipse_1_copy_233" class="st1" d="M749.6,2752.6c17.5,0,31.7,14.2,31.7,31.7s-14.2,31.7-31.7,31.7
		c-17.5,0-31.7-14.2-31.7-31.7l0,0C717.9,2766.8,732.1,2752.6,749.6,2752.6z"/>
	<path id="Ellipse_1_copy_234" class="st1" d="M769.4,2851.7c17.5,0,31.7,14.2,31.7,31.7s-14.2,31.7-31.7,31.7
		c-17.5,0-31.7-14.2-31.7-31.7l0,0C737.7,2865.9,751.9,2851.7,769.4,2851.7C769.4,2851.7,769.4,2851.7,769.4,2851.7z"/>
	<path id="Ellipse_1_copy_235" class="st1" d="M892.4,2744.6c17.5,0,31.7,14.2,31.7,31.7s-14.2,31.7-31.7,31.7
		c-17.5,0-31.7-14.2-31.7-31.7l0,0C860.7,2758.8,874.9,2744.6,892.4,2744.6z"/>
	<path id="Ellipse_1_copy_220" class="st1" d="M914.2,2578.1c16.4,0,29.7,13.3,29.7,29.8s-13.3,29.7-29.8,29.7
		c-16.4,0-29.7-13.3-29.7-29.7C884.5,2591.4,897.8,2578.1,914.2,2578.1C914.2,2578.1,914.2,2578.1,914.2,2578.1z"/>
	<circle id="Ellipse_1_copy_221" class="st0" cx="838.8" cy="2687.1" r="45.6"/>
	<circle id="Ellipse_1_copy_222" class="st0" cx="628.6" cy="2595.9" r="57.5"/>
	<path id="Ellipse_1_copy_215" class="st1" d="M943.9,2205.2c21.9,0,39.7,17.8,39.7,39.7c0,21.9-17.8,39.7-39.7,39.7
		c-21.9,0-39.7-17.8-39.7-39.7l0,0C904.3,2223,922,2205.2,943.9,2205.2C943.9,2205.2,943.9,2205.2,943.9,2205.2z"/>
	
		<ellipse id="Ellipse_1_copy_172" transform="matrix(0.7071 -0.7071 0.7071 0.7071 -1214.0824 1590.4436)" class="st0" cx="1312.8" cy="2260.7" rx="75.4" ry="75.4"/>
	<circle id="Ellipse_1_copy_171" class="st0" cx="1231.5" cy="2108" r="73.4"/>
	<circle id="Ellipse_1_copy_163" class="st0" cx="1806.6" cy="2568.1" r="69.4"/>
	<ellipse id="Ellipse_1_copy_178" class="st0" cx="1739.2" cy="2703" rx="45.6" ry="45.6"/>
	<path id="Ellipse_1_copy_179" class="st1" d="M1649.9,2748.6c43.8,0,79.3,35.5,79.3,79.3c0,43.8-35.5,79.3-79.3,79.3
		c-43.8,0-79.3-35.5-79.3-79.3C1570.6,2784.1,1606.1,2748.6,1649.9,2748.6C1649.9,2748.6,1649.9,2748.6,1649.9,2748.6z"/>
	<path id="Ellipse_1_copy_180" class="st1" d="M1392.1,2760.5c26.3,0,47.6,21.3,47.6,47.6c0,26.3-21.3,47.6-47.6,47.6
		s-47.6-21.3-47.6-47.6c0,0,0,0,0,0C1344.5,2781.8,1365.8,2760.5,1392.1,2760.5z"/>
	<circle id="Ellipse_1_copy_189" class="st0" cx="1503.2" cy="2919.1" r="47.6"/>
	<circle id="Ellipse_1_copy_190" class="st0" cx="1590.4" cy="3038.1" r="47.6"/>
	<circle id="Ellipse_1_copy_191" class="st0" cx="1312.8" cy="3284" r="47.6"/>
	<circle id="Ellipse_1_copy_192" class="st0" cx="1378.2" cy="3171" r="53.6"/>
	<circle id="Ellipse_1_copy_181" class="st0" cx="1402" cy="2683.2" r="33.7"/>
	<circle id="Ellipse_1_copy_182" class="st0" cx="1505.2" cy="2802.1" r="33.7"/>
	<path id="Ellipse_1_copy_243" class="st1" d="M1279.1,3145.2c14.2,0,25.8,11.5,25.8,25.8c0,14.2-11.5,25.8-25.8,25.8
		c-14.2,0-25.8-11.5-25.8-25.8C1253.3,3156.8,1264.9,3145.2,1279.1,3145.2C1279.1,3145.2,1279.1,3145.2,1279.1,3145.2z"/>
	<path id="Ellipse_1_copy_244" class="st1" d="M1346.5,2875.5c14.2,0,25.8,11.5,25.8,25.8s-11.5,25.8-25.8,25.8
		c-14.2,0-25.8-11.5-25.8-25.8C1320.7,2887.1,1332.3,2875.5,1346.5,2875.5C1346.5,2875.5,1346.5,2875.5,1346.5,2875.5z"/>
	<path id="Ellipse_1_copy_245" class="st1" d="M1417.9,3268.2c14.2,0,25.8,11.6,25.8,25.8c0,14.2-11.6,25.8-25.8,25.8
		c-14.2,0-25.8-11.5-25.8-25.8C1392.1,3279.7,1403.7,3268.2,1417.9,3268.2C1417.9,3268.2,1417.9,3268.2,1417.9,3268.2z"/>
	<path id="Ellipse_1_copy_183" class="st1" d="M1802.6,2740.7c18.6,0,33.7,15.1,33.7,33.7c0,18.6-15.1,33.7-33.7,33.7
		c-18.6,0-33.7-15.1-33.7-33.7l0,0C1768.9,2755.8,1784,2740.7,1802.6,2740.7C1802.6,2740.7,1802.6,2740.7,1802.6,2740.7z"/>
	<path id="Ellipse_1_copy_188" class="st1" d="M1790.7,2851.7c18.6,0,33.7,15.1,33.7,33.7c0,18.6-15.1,33.7-33.7,33.7
		c-18.6,0-33.7-15.1-33.7-33.7c0,0,0,0,0,0C1757,2866.8,1772.1,2851.7,1790.7,2851.7C1790.7,2851.7,1790.7,2851.7,1790.7,2851.7z"/>
	<circle id="Ellipse_1_copy_184" class="st0" cx="1739.2" cy="3115.5" r="53.5"/>
	<path id="Ellipse_1_copy_186" class="st1" d="M1374.3,2950.9c40.5,0,73.4,32.9,73.4,73.4c0,40.5-32.9,73.4-73.4,73.4
		c-40.5,0-73.4-32.9-73.4-73.4C1300.9,2983.7,1333.8,2950.9,1374.3,2950.9C1374.3,2950.9,1374.3,2950.9,1374.3,2950.9z"/>
	<circle id="Ellipse_1_copy_187" class="st0" cx="1729.2" cy="2970.7" r="51.6"/>
	<circle id="Ellipse_1_copy_185" class="st0" cx="1713.4" cy="3260.2" r="51.6"/>
	<path id="Ellipse_1_copy_162" class="st1" d="M1467.5,2145.7c26.3,0,47.6,21.3,47.6,47.6c0,26.3-21.3,47.6-47.6,47.6
		s-47.6-21.3-47.6-47.6c0,0,0,0,0,0C1419.9,2167.1,1441.2,2145.7,1467.5,2145.7z"/>
	<circle id="Ellipse_1_copy_166" class="st0" cx="1062.9" cy="2102.1" r="63.5"/>
	<circle id="Ellipse_1_copy_193" class="st0" cx="973.7" cy="1774.9" r="77.3"/>
	<circle id="Ellipse_1_copy_194" class="st0" cx="682.2" cy="1761" r="63.5"/>
	<path id="Ellipse_1_copy_196" class="st1" d="M932,1931.6c35.1,0,63.5,28.4,63.5,63.5c0,35.1-28.4,63.5-63.5,63.5
		c-35.1,0-63.5-28.4-63.5-63.5l0,0C868.6,1960,897,1931.6,932,1931.6z"/>
	<circle id="Ellipse_1_copy_197" class="st0" cx="723.8" cy="2064.4" r="105.1"/>
	<circle id="Ellipse_1_copy_198" class="st0" cx="600.9" cy="1897.8" r="61.5"/>
	<path id="Ellipse_1_copy_199" class="st1" d="M805.1,1749.1c15.3,0,27.8,12.4,27.8,27.8c0,15.3-12.4,27.8-27.8,27.8
		c-15.3,0-27.8-12.4-27.8-27.8c0,0,0,0,0,0C777.4,1761.5,789.8,1749.1,805.1,1749.1z"/>
	<path id="Ellipse_1_copy_200" class="st1" d="M717.9,1848.3c15.3,0,27.8,12.4,27.8,27.8c0,15.3-12.4,27.8-27.8,27.8
		c-15.3,0-27.8-12.4-27.8-27.8C690.1,1860.7,702.5,1848.3,717.9,1848.3L717.9,1848.3z"/>
	<circle id="Ellipse_1_copy_201" class="st0" cx="844.8" cy="1880" r="27.8"/>
	<circle id="Ellipse_1_copy_202" class="st0" cx="575.1" cy="1749.1" r="27.8"/>
	<path id="Ellipse_1_copy_203" class="st1" d="M547.3,2014.9c15.3,0,27.8,12.4,27.8,27.8c0,15.3-12.4,27.8-27.8,27.8
		s-27.8-12.4-27.8-27.8C519.6,2027.3,532,2014.9,547.3,2014.9z"/>
	<path id="Ellipse_1_copy_204" class="st1" d="M99.1,2030.7c41.6,0,75.4,33.7,75.4,75.4c0,41.6-33.7,75.4-75.4,75.4
		s-75.4-33.7-75.4-75.4c0,0,0,0,0,0C23.8,2064.5,57.5,2030.7,99.1,2030.7z"/>
	<path id="Ellipse_1_copy_205" class="st1" d="M523.5,2308.4c57,0,103.1,46.2,103.1,103.1s-46.2,103.1-103.1,103.1
		c-57,0-103.1-46.2-103.1-103.1C420.4,2354.5,466.6,2308.4,523.5,2308.4z"/>
	<path id="Ellipse_1_copy_211" class="st1" d="M343.1,2038.6c36.1,0,65.4,29.3,65.4,65.4c0,36.1-29.3,65.4-65.4,65.5
		s-65.4-29.3-65.5-65.4l0,0C277.6,2068,306.9,2038.7,343.1,2038.6C343.1,2038.6,343.1,2038.6,343.1,2038.6z"/>
	<circle id="Ellipse_1_copy_212" class="st0" cx="355" cy="2302.4" r="65.4"/>
	<path id="Ellipse_1_copy_213" class="st1" d="M523.5,2125.9c41.6,0,75.4,33.7,75.4,75.4s-33.7,75.4-75.4,75.4
		c-41.6,0-75.4-33.7-75.4-75.4S481.9,2125.9,523.5,2125.9C523.5,2125.9,523.5,2125.9,523.5,2125.9z"/>
	<circle id="Ellipse_1_copy_214" class="st0" cx="789.3" cy="2312.3" r="91.2"/>
	<circle id="Ellipse_1_copy_206" class="st0" cx="55.5" cy="2471" r="55.5"/>
	<path id="Ellipse_1_copy_207" class="st1" d="M222.1,2169.5c30.7,0,55.5,24.9,55.5,55.5s-24.9,55.5-55.5,55.5
		c-30.7,0-55.5-24.9-55.5-55.5C166.6,2194.4,191.4,2169.5,222.1,2169.5z"/>
	<circle id="Ellipse_1_copy_208" class="st0" cx="55.5" cy="2244.9" r="35.7"/>
	<path id="Ellipse_1_copy_209" class="st1" d="M103.1,2292.5c26.3,0,47.6,21.3,47.6,47.6s-21.3,47.6-47.6,47.6s-47.6-21.3-47.6-47.6
		C55.5,2313.8,76.8,2292.5,103.1,2292.5L103.1,2292.5z"/>
	
		<ellipse id="Ellipse_1_copy_210" transform="matrix(0.9951 -9.853756e-02 9.853756e-02 0.9951 -239.2001 35.3182)" class="st0" cx="238" cy="2439.3" rx="63.5" ry="63.5"/>
	<circle id="Ellipse_1_copy_167" class="st0" cx="1035.2" cy="2395.6" r="95.2"/>
	<circle id="Ellipse_1_copy_164" class="st0" cx="1384.2" cy="2078.3" r="39.7"/>
	<circle id="Ellipse_1_copy_165" class="st0" cx="1493.3" cy="2088.2" r="25.8"/>
	<circle id="Ellipse_1_copy_149" class="st0" cx="1802.6" cy="2159.6" r="33.7"/>
	<circle id="Ellipse_1_copy_156" class="st0" cx="2340.1" cy="2193.3" r="47.6"/>
	<path id="Ellipse_1_copy_158" class="st1" d="M2344,2399.6c26.3,0,47.6,21.3,47.6,47.6c0,26.3-21.3,47.6-47.6,47.6
		s-47.6-21.3-47.6-47.6c0,0,0,0,0,0C2296.4,2420.9,2317.7,2399.6,2344,2399.6C2344,2399.6,2344,2399.6,2344,2399.6z"/>
	<path id="Ellipse_1_copy_159" class="st1" d="M2217.1,2431.3c17.5,0,31.7,14.2,31.7,31.7s-14.2,31.7-31.7,31.7
		s-31.7-14.2-31.7-31.7l0,0C2185.4,2445.5,2199.6,2431.3,2217.1,2431.3z"/>
	<circle id="Ellipse_1_copy_160" class="st0" cx="2346" cy="2322.2" r="41.6"/>
	<circle id="Ellipse_1_copy_150" class="st0" cx="1640" cy="2159.6" r="97.2"/>
	<path id="Ellipse_1_copy_151" class="st1" d="M1620.2,2399.6c53.7,0,97.2,43.5,97.2,97.2c0,53.7-43.5,97.2-97.2,97.2
		s-97.2-43.5-97.2-97.2c0,0,0,0,0,0C1523,2443.1,1566.5,2399.6,1620.2,2399.6z"/>
	<circle id="Ellipse_1_copy_176" class="st0" cx="1544.8" cy="3214.6" r="97.2"/>
	<circle id="Ellipse_1_copy_148" class="st0" cx="2054.5" cy="2439.2" r="55.5"/>
	<path id="Ellipse_1_copy_152" class="st1" d="M2217.1,2014.9c30.7,0,55.5,24.9,55.5,55.5c0,30.7-24.9,55.5-55.5,55.5
		c-30.7,0-55.5-24.9-55.5-55.5C2161.6,2039.7,2186.4,2014.9,2217.1,2014.9z"/>
	<circle id="Ellipse_1_copy_153" class="st0" cx="2229" cy="2205.2" r="35.7"/>
	<circle id="Ellipse_1_copy_155" class="st0" cx="2344" cy="2082.3" r="47.6"/>
	<path id="Ellipse_1_copy_154" class="st1" d="M2221.1,2296.5c28.5,0,51.6,23.1,51.6,51.6c0,28.5-23.1,51.6-51.6,51.6
		c-28.5,0-51.6-23.1-51.6-51.6C2169.5,2319.5,2192.6,2296.5,2221.1,2296.5C2221.1,2296.5,2221.1,2296.5,2221.1,2296.5z"/>
	<circle id="Ellipse_1_copy_143" class="st0" cx="1947.4" cy="2102.1" r="67.4"/>
	<path id="Ellipse_1_copy_146" class="st1" d="M2086.2,2034.7c24.1,0,43.6,19.5,43.6,43.6c0,24.1-19.5,43.6-43.6,43.6
		c-24.1,0-43.6-19.5-43.6-43.6C2042.6,2054.2,2062.1,2034.7,2086.2,2034.7L2086.2,2034.7z"/>
	<path id="Ellipse_1_copy_147" class="st1" d="M2076.3,2157.6c49.3,0,89.2,40,89.2,89.2c0,49.3-40,89.2-89.2,89.2
		s-89.2-40-89.2-89.2l0,0C1987.1,2197.6,2027,2157.6,2076.3,2157.6z"/>
	<path id="Ellipse_1_copy_141" class="st1" d="M1523,1951.4c21.9,0,39.7,17.8,39.7,39.7s-17.8,39.7-39.7,39.7s-39.7-17.8-39.7-39.7
		c0,0,0,0,0,0C1483.3,1969.2,1501.1,1951.4,1523,1951.4C1523,1951.4,1523,1951.4,1523,1951.4z"/>
	<path id="Ellipse_1_copy_142" class="st1" d="M1911.7,1935.5c21.9,0,39.7,17.8,39.7,39.7c0,21.9-17.8,39.7-39.7,39.7
		c-21.9,0-39.7-17.8-39.7-39.7c0,0,0,0,0,0C1872,1953.3,1889.8,1935.5,1911.7,1935.5z"/>
	<path id="Ellipse_1_copy_135" class="st1" d="M1602.3,1772.9c13.1,0,23.8,10.6,23.8,23.8c0,13.1-10.6,23.8-23.8,23.8
		c-13.1,0-23.8-10.6-23.8-23.8c0,0,0,0,0,0C1578.5,1783.6,1589.2,1772.9,1602.3,1772.9C1602.3,1772.9,1602.3,1772.9,1602.3,1772.9z"
		/>
	<circle id="Ellipse_1_copy_137" class="st0" cx="1649.9" cy="1951.4" r="79.3"/>
	<path id="Ellipse_1_copy_138" class="st1" d="M1840.3,1772.9c43.8,0,79.3,35.5,79.3,79.3c0,43.8-35.5,79.3-79.3,79.3
		c-43.8,0-79.3-35.5-79.3-79.3C1761,1808.4,1796.5,1772.9,1840.3,1772.9C1840.3,1772.9,1840.3,1772.9,1840.3,1772.9z"/>
	<circle id="Ellipse_1_copy_144" class="st0" cx="1887.9" cy="2415.4" r="79.3"/>
	<path id="Ellipse_1_copy_136" class="st1" d="M1525,1796.7c27.4,0,49.6,22.2,49.6,49.6c0,27.4-22.2,49.6-49.6,49.6
		c-27.4,0-49.6-22.2-49.6-49.6c0,0,0,0,0,0C1475.4,1818.9,1497.6,1796.7,1525,1796.7z"/>
	<circle id="Ellipse_1_copy_129" class="st0" cx="1671.7" cy="1556.7" r="49.6"/>
	<circle id="Ellipse_1_copy_131" class="st0" cx="1570.6" cy="1677.7" r="71.4"/>
	<circle id="Ellipse_1_copy_130" class="st0" cx="1788.7" cy="1653.9" r="67.4"/>
	<circle id="Ellipse_1_copy_109" class="st0" cx="2264.7" cy="1082.8" r="27.8"/>
	<path id="Ellipse_1_copy_112" class="st1" d="M2482.8,1162.1c15.3,0,27.8,12.4,27.8,27.8s-12.4,27.8-27.8,27.8
		c-15.3,0-27.8-12.4-27.8-27.8C2455.1,1174.5,2467.5,1162.1,2482.8,1162.1C2482.8,1162.1,2482.8,1162.1,2482.8,1162.1z"/>
	<path id="Ellipse_1_copy_114" class="st1" d="M2447.1,1245.4c21.9,0,39.7,17.8,39.7,39.7s-17.8,39.7-39.7,39.7
		c-21.9,0-39.7-17.8-39.7-39.7l0,0C2407.5,1263.2,2425.2,1245.4,2447.1,1245.4z"/>
	<circle id="Ellipse_1_copy_113" class="st0" cx="2383.7" cy="1193.9" r="43.6"/>
	<path id="Ellipse_1_copy_104" class="st1" d="M2010.9,1217.6c54.8,0,99.2,44.4,99.2,99.2s-44.4,99.2-99.2,99.2
		c-54.8,0-99.2-44.4-99.2-99.2c0,0,0,0,0,0C1911.7,1262,1956.1,1217.6,2010.9,1217.6C2010.9,1217.6,2010.9,1217.6,2010.9,1217.6z"/>
	<path id="Ellipse_1_copy_89" class="st1" d="M1542.8,1511.1c15.3,0,27.8,12.4,27.8,27.8s-12.4,27.8-27.8,27.8
		c-15.3,0-27.8-12.4-27.8-27.8C1515.1,1523.6,1527.5,1511.2,1542.8,1511.1z"/>
	<circle id="Ellipse_1_copy_86" class="st0" cx="1661.8" cy="555.3" r="27.8"/>
	<circle id="Ellipse_1_copy_80" class="st0" cx="1624.2" cy="1342.6" r="57.5"/>
	<circle id="Ellipse_1_copy_90" class="st0" cx="2044.6" cy="1112.5" r="57.5"/>
	<path id="Ellipse_1_copy_105" class="st1" d="M1840.3,1201.8c26.3,0,47.6,21.3,47.6,47.6s-21.3,47.6-47.6,47.6
		c-26.3,0-47.6-21.3-47.6-47.6S1814,1201.8,1840.3,1201.8L1840.3,1201.8z"/>
	<circle id="Ellipse_1_copy_106" class="st0" cx="2149.7" cy="1205.7" r="47.6"/>
	<circle id="Ellipse_1_copy_110" class="st0" cx="2467" cy="1094.7" r="47.6"/>
	<path id="Ellipse_1_copy_111" class="st1" d="M2355.9,1063c19.7,0,35.7,16,35.7,35.7c0,19.7-16,35.7-35.7,35.7s-35.7-16-35.7-35.7
		v0C2320.2,1078.9,2336.2,1063,2355.9,1063z"/>
	<circle id="Ellipse_1_copy_107" class="st0" cx="2157.6" cy="1078.8" r="35.7"/>
	<circle id="Ellipse_1_copy_97" class="st0" cx="1899.8" cy="872.6" r="35.7"/>
	<circle id="Ellipse_1_copy_98" class="st0" cx="1792.7" cy="987.6" r="35.7"/>
	<path id="Ellipse_1_copy_102" class="st1" d="M1907.7,1114.5c19.7,0,35.7,16,35.7,35.7c0,19.7-16,35.7-35.7,35.7
		c-19.7,0-35.7-16-35.7-35.7c0,0,0,0,0,0C1872,1130.5,1888,1114.5,1907.7,1114.5z"/>
	<circle id="Ellipse_1_copy_100" class="st0" cx="2030.7" cy="959.8" r="35.7"/>
	<circle id="Ellipse_1_copy_101" class="st0" cx="1911.7" cy="1015.4" r="59.5"/>
	<circle id="Ellipse_1_copy_99" class="st0" cx="1774.9" cy="1108.6" r="49.6"/>
	<circle id="Ellipse_1_copy_84" class="st0" cx="1651.9" cy="997.5" r="73.4"/>
	<circle id="Ellipse_1_copy_91" class="st0" cx="2074.3" cy="575.1" r="47.6"/>
	<circle id="Ellipse_1_copy_85" class="st0" cx="1761" cy="860.7" r="59.5"/>
	<circle id="Ellipse_1_copy_96" class="st0" cx="2026.7" cy="836.9" r="59.5"/>
	<circle id="Ellipse_1_copy_94" class="st0" cx="1897.8" cy="735.7" r="77.3"/>
	<path id="Ellipse_1_copy_88" class="st1" d="M1624.2,789.3c23,0,41.6,18.7,41.6,41.6s-18.7,41.6-41.6,41.6
		c-23,0-41.6-18.6-41.6-41.6C1582.5,807.9,1601.1,789.3,1624.2,789.3C1624.1,789.3,1624.2,789.3,1624.2,789.3z"/>
	<circle id="Ellipse_1_copy_92" class="st0" cx="1794.7" cy="569.2" r="41.6"/>
	<circle id="Ellipse_1_copy_93" class="st0" cx="2064.4" cy="704" r="41.7"/>
	<path id="Ellipse_1_copy_87" class="st1" d="M1709.4,602.9c46,0,83.3,37.3,83.3,83.3c0,46-37.3,83.3-83.3,83.3
		c-46,0-83.3-37.3-83.3-83.3C1626.1,640.2,1663.4,602.9,1709.4,602.9L1709.4,602.9z"/>
	<circle id="Ellipse_1_copy_76" class="st0" cx="1340.6" cy="1336.6" r="27.8"/>
	<path id="Ellipse_1_copy_79" class="st1" d="M1538.9,1193.8c17.5,0,31.7,14.2,31.7,31.7s-14.2,31.7-31.7,31.7s-31.7-14.2-31.7-31.7
		l0,0C1507.1,1208.1,1521.3,1193.9,1538.9,1193.8C1538.9,1193.8,1538.9,1193.8,1538.9,1193.8z"/>
	<circle id="Ellipse_1_copy_95" class="st0" cx="1933.5" cy="569.2" r="45.6"/>
	<path id="Ellipse_1_copy_77" class="st1" d="M1427.8,1205.7c24.1,0,43.6,19.5,43.6,43.6s-19.5,43.6-43.6,43.6
		c-24.1,0-43.6-19.5-43.6-43.6C1384.2,1225.3,1403.7,1205.8,1427.8,1205.7C1427.8,1205.7,1427.8,1205.7,1427.8,1205.7z"/>
	<circle id="Ellipse_1_copy_78" class="st0" cx="1538.9" cy="1078.8" r="43.6"/>
	<path id="Ellipse_1_copy_72" class="st1" d="M1398.1,1059c34,0,61.5,27.5,61.5,61.5c0,34-27.5,61.5-61.5,61.5
		c-34,0-61.5-27.5-61.5-61.5c0,0,0,0,0,0C1336.6,1086.5,1364.1,1059,1398.1,1059z"/>
	<path id="Ellipse_1_copy_31" class="st1" d="M1027.2,1118.5c46,0,83.3,37.3,83.3,83.3c0,46-37.3,83.3-83.3,83.3
		c-46,0-83.3-37.3-83.3-83.3S981.2,1118.5,1027.2,1118.5C1027.2,1118.5,1027.2,1118.5,1027.2,1118.5z"/>
	<circle id="Ellipse_1_copy_23" class="st0" cx="1051" cy="892.4" r="31.7"/>
	<circle id="Ellipse_1_copy_27" class="st0" cx="876.5" cy="975.7" r="31.7"/>
	<circle id="Ellipse_1_copy_34" class="st0" cx="674.2" cy="1003.5" r="31.7"/>
	<circle id="Ellipse_1_copy_35" class="st0" cx="680.2" cy="902.3" r="25.8"/>
	<circle id="Ellipse_1_copy_33" class="st0" cx="777.4" cy="1094.7" r="63.5"/>
	<circle id="Ellipse_1_copy_58" class="st0" cx="638.5" cy="1300.9" r="47.6"/>
	<circle id="Ellipse_1_copy_59" class="st0" cx="706" cy="1404" r="47.6"/>
	<path id="Ellipse_1_copy_60" class="st1" d="M787.3,1289c18.6,0,33.7,15.1,33.7,33.7c0,18.6-15.1,33.7-33.7,33.7
		c-18.6,0-33.7-15.1-33.7-33.7C753.6,1304.1,768.7,1289,787.3,1289C787.3,1289,787.3,1289,787.3,1289z"/>
	<path id="Ellipse_1_copy_61" class="st1" d="M910.2,1281.1c18.6,0,33.7,15.1,33.7,33.7c0,18.6-15.1,33.7-33.7,33.7
		c-18.6,0-33.7-15.1-33.7-33.7c0,0,0,0,0,0C876.5,1296.2,891.6,1281.1,910.2,1281.1C910.2,1281.1,910.2,1281.1,910.2,1281.1z"/>
	<path id="Ellipse_1_copy_62" class="st1" d="M864.6,1380.3c50.4,0,91.2,40.8,91.2,91.2c0,50.4-40.8,91.2-91.2,91.2
		c-50.4,0-91.2-40.8-91.2-91.2l0,0C773.4,1421.1,814.2,1380.3,864.6,1380.3C864.6,1380.3,864.6,1380.3,864.6,1380.3z"/>
	<circle id="Ellipse_1_copy_73" class="st0" cx="1459.6" cy="1416" r="91.2"/>
	<path id="Ellipse_1_copy_63" class="st1" d="M698,1491.3c28.5,0,51.6,23.1,51.6,51.6s-23.1,51.6-51.6,51.6
		c-28.5,0-51.6-23.1-51.6-51.6C646.5,1514.4,669.6,1491.3,698,1491.3z"/>
	<path id="Ellipse_1_copy_64" class="st1" d="M606.8,1594.4c17.5,0,31.7,14.2,31.7,31.7s-14.2,31.7-31.7,31.7
		c-17.5,0-31.7-14.2-31.7-31.7l0,0C575.1,1608.6,589.3,1594.4,606.8,1594.4C606.8,1594.4,606.8,1594.4,606.8,1594.4z"/>
	<circle id="Ellipse_1_copy_65" class="st0" cx="825" cy="1646" r="59.5"/>
	<path id="Ellipse_1_copy_66" class="st1" d="M947.9,1574.6c21.9,0,39.7,17.8,39.7,39.7c0,21.9-17.8,39.7-39.7,39.7
		c-21.9,0-39.7-17.8-39.7-39.7C908.3,1592.4,926,1574.6,947.9,1574.6C947.9,1574.6,947.9,1574.6,947.9,1574.6z"/>
	<circle id="Ellipse_1_copy_67" class="st0" cx="1021.3" cy="1505.2" r="53.5"/>
	<circle id="Ellipse_1_copy_68" class="st0" cx="1120.5" cy="1421.9" r="53.6"/>
	<circle id="Ellipse_1_copy_69" class="st0" cx="1185.9" cy="1277.1" r="63.5"/>
	<circle id="Ellipse_1_copy_83" class="st0" cx="1661.8" cy="1189.9" r="63.5"/>
	<circle id="Ellipse_1_copy_70" class="st0" cx="1255.3" cy="1104.6" r="45.6"/>
	<circle id="Ellipse_1_copy_28" class="st0" cx="989.5" cy="985.6" r="41.6"/>
	<circle id="Ellipse_1_copy_36" class="st0" cx="862.6" cy="1227.6" r="41.6"/>
	<circle id="Ellipse_1_copy_37" class="st0" cx="719.9" cy="1235.5" r="41.6"/>
	<path id="Ellipse_1_copy_38" class="st1" d="M1005.4,1324.7c23,0,41.6,18.7,41.6,41.7c0,23-18.7,41.6-41.7,41.6
		c-23,0-41.6-18.6-41.6-41.6C963.8,1343.4,982.4,1324.7,1005.4,1324.7C1005.4,1324.7,1005.4,1324.7,1005.4,1324.7z"/>
	<path id="Ellipse_1_copy_39" class="st1" d="M589,1427.9c23,0,41.6,18.6,41.7,41.6c0,23-18.6,41.6-41.6,41.7
		c-23,0-41.6-18.6-41.7-41.6c0,0,0,0,0,0C547.3,1446.5,566,1427.9,589,1427.9z"/>
	<circle id="Ellipse_1_copy_40" class="st0" cx="184.4" cy="1469.5" r="41.6"/>
	<circle id="Ellipse_1_copy_41" class="st0" cx="291.5" cy="1199.8" r="81.3"/>
	<circle id="Ellipse_1_copy_42" class="st0" cx="176.5" cy="1092.7" r="33.7"/>
	<circle id="Ellipse_1_copy_43" class="st0" cx="194.3" cy="1352.5" r="51.5"/>
	<path id="Ellipse_1_copy_44" class="st1" d="M170.5,1209.7c15.3,0,27.8,12.4,27.8,27.8c0,15.3-12.4,27.8-27.8,27.8
		c-15.3,0-27.8-12.4-27.8-27.8C142.8,1222.1,155.2,1209.7,170.5,1209.7C170.5,1209.7,170.5,1209.7,170.5,1209.7z"/>
	<circle id="Ellipse_1_copy_45" class="st0" cx="305.4" cy="1328.7" r="27.8"/>
	
		<ellipse id="Ellipse_1_copy_46" transform="matrix(0.9239 -0.3827 0.3827 0.9239 -528.0058 209.1643)" class="st0" cx="261.8" cy="1431.8" rx="27.8" ry="27.8"/>
	<path id="Ellipse_1_copy_49" class="st1" d="M305.4,1463.5c15.3,0,27.8,12.4,27.8,27.8c0,15.3-12.4,27.8-27.8,27.8
		c-15.3,0-27.8-12.4-27.8-27.8C277.6,1476,290,1463.6,305.4,1463.5C305.4,1463.5,305.4,1463.5,305.4,1463.5z"/>
	<circle id="Ellipse_1_copy_50" class="st0" cx="333.1" cy="1392.2" r="27.8"/>
	<circle id="Ellipse_1_copy_51" class="st0" cx="305.4" cy="1082.8" r="27.8"/>
	<path id="Ellipse_1_copy_52" class="st1" d="M434.3,1201.8c25.2,0,45.6,20.4,45.6,45.6s-20.4,45.6-45.6,45.6s-45.6-20.4-45.6-45.6
		l0,0C388.7,1222.2,409.1,1201.8,434.3,1201.8z"/>
	<circle id="Ellipse_1_copy_53" class="st0" cx="404.5" cy="1336.6" r="31.7"/>
	<circle id="Ellipse_1_copy_54" class="st0" cx="523.5" cy="1364.4" r="63.5"/>
	<circle id="Ellipse_1_copy_55" class="st0" cx="547.3" cy="1229.5" r="43.6"/>
	<path id="Ellipse_1_copy_56" class="st1" d="M559.2,1039.2c17.5,0,31.7,14.2,31.7,31.7c0,17.5-14.2,31.7-31.7,31.7
		c-17.5,0-31.7-14.2-31.7-31.7l0,0C527.5,1053.4,541.7,1039.2,559.2,1039.2z"/>
	<path id="Ellipse_1_copy_57" class="st1" d="M648.5,1090.7c27.4,0,49.6,22.2,49.6,49.6c0,27.4-22.2,49.6-49.6,49.6
		c-27.4,0-49.6-22.2-49.6-49.6v0C598.9,1112.9,621.1,1090.7,648.5,1090.7C648.5,1090.7,648.5,1090.7,648.5,1090.7z"/>
	<circle id="Ellipse_1_copy_47" class="st0" cx="408.5" cy="1463.5" r="59.5"/>
	<circle id="Ellipse_1_copy_48" class="st0" cx="436.3" cy="1118.5" r="59.5"/>
	<circle id="Ellipse_1_copy_24" class="st0" cx="1130.4" cy="844.8" r="43.6"/>
	<circle id="Ellipse_1_copy_26" class="st0" cx="785.3" cy="932.1" r="43.6"/>
	<circle id="Ellipse_1_copy_16" class="st0" cx="713.9" cy="571.2" r="31.7"/>
	<circle id="Ellipse_1_copy_25" class="st0" cx="702" cy="662.4" r="23.8"/>
	<path id="Ellipse_1_copy_9" class="st1" d="M1193.8,261.8c17.5,0,31.7,14.2,31.7,31.7s-14.2,31.7-31.7,31.7
		c-17.5,0-31.7-14.2-31.7-31.7c0,0,0,0,0,0C1162.1,276,1176.3,261.8,1193.8,261.8C1193.8,261.8,1193.8,261.8,1193.8,261.8z"/>
	<path id="Ellipse_1_copy" class="st1" d="M991.5,11.9c46,0,83.3,37.3,83.3,83.3c0,46-37.3,83.3-83.3,83.3
		c-46,0-83.3-37.3-83.3-83.3c0,0,0,0,0,0C908.3,49.2,945.5,11.9,991.5,11.9z"/>
	<circle id="Ellipse_1_copy_11" class="st0" cx="1094.7" cy="602.9" r="83.3"/>
	<path id="Ellipse_1_copy_12" class="st1" d="M761.5,694.1c46,0,83.3,37.3,83.3,83.3s-37.3,83.3-83.3,83.3
		c-46,0-83.3-37.3-83.3-83.3c0,0,0,0,0,0C678.2,731.4,715.5,694.1,761.5,694.1C761.5,694.1,761.5,694.1,761.5,694.1z"/>
	<circle id="Ellipse_1_copy_19" class="st0" cx="920.2" cy="872.6" r="59.5"/>
</g>
</svg>
