<?xml version="1.0" encoding="utf-8"?>
<!-- Generator: Adobe Illustrator 25.2.0, SVG Export Plug-In . SVG Version: 6.00 Build 0)  -->
<svg version="1.1" id="Layer_1" xmlns="http://www.w3.org/2000/svg" xmlns:xlink="http://www.w3.org/1999/xlink" x="0px" y="0px"
	 viewBox="0 0 821.63 173.2" style="enable-background:new 0 0 821.63 173.2;" xml:space="preserve">
<style type="text/css">
	.st0{fill:#161F28;}
</style>
<g>
	<g>
		<path class="st0" d="M342.16,105.5h-36.65c0.93,2.15,2.28,4.06,4.06,5.73c1.96,1.96,4.15,3.43,6.57,4.41
			c2.42,0.98,4.99,1.47,7.69,1.47c3.82,0,7.23-0.89,10.21-2.66l17.48,6.99c-3.36,3.92-7.41,6.97-12.17,9.16
			c-4.76,2.19-9.93,3.29-15.53,3.29c-5.13,0-9.93-0.96-14.41-2.87c-4.48-1.91-8.39-4.55-11.75-7.9c-3.36-3.36-5.99-7.27-7.9-11.75
			c-1.91-4.48-2.87-9.23-2.87-14.27c0-5.13,0.96-9.93,2.87-14.41c1.91-4.48,4.55-8.39,7.9-11.75s7.27-5.99,11.75-7.9
			c4.48-1.91,9.28-2.87,14.41-2.87c5.13,0,9.93,0.96,14.41,2.87c4.48,1.91,8.39,4.55,11.75,7.9c3.36,3.36,5.99,7.27,7.9,11.75
			c1.91,4.48,2.87,9.28,2.87,14.41c0,2.99-0.33,5.78-0.98,8.39H342.16z M323.84,76.97c-5.41,0-10.16,1.96-14.27,5.87
			c-1.77,1.77-3.13,3.73-4.06,5.87h36.65c-0.93-2.14-2.29-4.1-4.06-5.87C334.19,78.93,329.43,76.97,323.84,76.97z"/>
		<path class="st0" d="M440.07,62.14l-32.45,69.94h-18.46l-32.45-69.94h18.46l23.22,50.07l23.22-50.07H440.07z"/>
		<path class="st0" d="M491.4,105.5h-36.65c0.93,2.15,2.28,4.06,4.06,5.73c1.96,1.96,4.15,3.43,6.57,4.41
			c2.42,0.98,4.99,1.47,7.69,1.47c3.82,0,7.22-0.89,10.21-2.66l17.48,6.99c-3.36,3.92-7.41,6.97-12.17,9.16
			c-4.76,2.19-9.93,3.29-15.53,3.29c-5.13,0-9.93-0.96-14.41-2.87s-8.39-4.55-11.75-7.9c-3.36-3.36-5.99-7.27-7.9-11.75
			c-1.91-4.48-2.87-9.23-2.87-14.27c0-5.13,0.96-9.93,2.87-14.41c1.91-4.48,4.55-8.39,7.9-11.75c3.36-3.36,7.27-5.99,11.75-7.9
			c4.48-1.91,9.28-2.87,14.41-2.87c5.13,0,9.93,0.96,14.41,2.87c4.48,1.91,8.39,4.55,11.75,7.9c3.36,3.36,5.99,7.27,7.9,11.75
			c1.91,4.48,2.87,9.28,2.87,14.41c0,2.99-0.33,5.78-0.98,8.39H491.4z M473.08,76.97c-5.41,0-10.17,1.96-14.27,5.87
			c-1.77,1.77-3.12,3.73-4.06,5.87h36.65c-0.93-2.14-2.29-4.1-4.06-5.87C483.43,78.93,478.67,76.97,473.08,76.97z"/>
		<path class="st0" d="M517.7,132.08V34.17h16.78v97.91H517.7z"/>
		<path class="st0" d="M579.1,60.18c5.13,0,9.93,0.96,14.41,2.87c4.48,1.91,8.39,4.55,11.75,7.9c3.36,3.36,5.99,7.27,7.9,11.75
			c1.91,4.48,2.87,9.28,2.87,14.41c0,5.04-0.96,9.79-2.87,14.27c-1.91,4.48-4.55,8.39-7.9,11.75c-3.36,3.36-7.27,5.99-11.75,7.9
			s-9.28,2.87-14.41,2.87c-5.13,0-9.93-0.96-14.41-2.87s-8.39-4.55-11.75-7.9c-3.36-3.36-5.99-7.27-7.9-11.75
			c-1.91-4.48-2.87-9.23-2.87-14.27c0-5.13,0.96-9.93,2.87-14.41c1.91-4.48,4.55-8.39,7.9-11.75c3.36-3.36,7.27-5.99,11.75-7.9
			C569.17,61.14,573.97,60.18,579.1,60.18z M579.1,76.97c-5.59,0-10.35,1.96-14.27,5.87c-3.92,3.92-5.87,8.67-5.87,14.27
			c0,5.5,1.96,10.21,5.87,14.13c1.86,1.96,4.03,3.43,6.5,4.41c2.47,0.98,5.06,1.47,7.76,1.47c2.7,0,5.27-0.49,7.69-1.47
			c2.42-0.98,4.62-2.45,6.57-4.41c3.92-3.92,5.87-8.62,5.87-14.13c0-5.59-1.96-10.35-5.87-14.27
			C589.26,78.93,584.5,76.97,579.1,76.97z"/>
		<path class="st0" d="M662.04,60.18c5.13,0,9.86,0.96,14.2,2.87c4.34,1.91,8.09,4.55,11.26,7.9c3.17,3.36,5.64,7.27,7.41,11.75
			c1.77,4.48,2.66,9.28,2.66,14.41c0,5.04-0.89,9.79-2.66,14.27c-1.77,4.48-4.24,8.39-7.41,11.75c-3.17,3.36-6.92,5.99-11.26,7.9
			s-9.07,2.87-14.2,2.87c-5.69,0-10.68-1.07-14.97-3.22l6.01-14.97c2.24,0.93,4.76,1.4,7.55,1.4c2.7,0,5.27-0.49,7.69-1.47
			c2.42-0.98,4.62-2.45,6.57-4.41c3.92-3.92,5.88-8.62,5.88-14.13c0-5.59-1.96-10.35-5.88-14.27c-4.1-3.92-8.86-5.87-14.27-5.87
			c-5.59,0-10.35,1.96-14.27,5.87c-3.92,3.92-5.88,8.67-5.88,14.27v29.37v33.57h-16.78V62h16.78v5.59c2.7-2.14,5.83-3.92,9.37-5.31
			C653.41,60.88,657.47,60.18,662.04,60.18z"/>
		<path class="st0" d="M758.41,105.5h-36.65c0.93,2.15,2.28,4.06,4.06,5.73c1.96,1.96,4.15,3.43,6.57,4.41
			c2.42,0.98,4.99,1.47,7.69,1.47c3.82,0,7.22-0.89,10.21-2.66l17.48,6.99c-3.36,3.92-7.41,6.97-12.17,9.16
			c-4.76,2.19-9.93,3.29-15.53,3.29c-5.13,0-9.93-0.96-14.41-2.87s-8.39-4.55-11.75-7.9c-3.36-3.36-5.99-7.27-7.9-11.75
			c-1.91-4.48-2.87-9.23-2.87-14.27c0-5.13,0.96-9.93,2.87-14.41c1.91-4.48,4.55-8.39,7.9-11.75c3.36-3.36,7.27-5.99,11.75-7.9
			c4.48-1.91,9.28-2.87,14.41-2.87c5.13,0,9.93,0.96,14.41,2.87c4.48,1.91,8.39,4.55,11.75,7.9c3.36,3.36,5.99,7.27,7.9,11.75
			c1.91,4.48,2.87,9.28,2.87,14.41c0,2.99-0.33,5.78-0.98,8.39H758.41z M740.09,76.97c-5.41,0-10.17,1.96-14.27,5.87
			c-1.77,1.77-3.12,3.73-4.06,5.87h36.65c-0.93-2.14-2.29-4.1-4.06-5.87C750.44,78.93,745.68,76.97,740.09,76.97z"/>
		<path class="st0" d="M810.37,62.14c3.31-1.4,7.06-2.1,11.26-2.1v16.78c-5.59,0-10.35,1.96-14.27,5.87
			c-3.92,4.11-5.88,8.86-5.88,14.27v35.11H784.7V96.97V62h16.78v5.46C804.1,65.31,807.06,63.54,810.37,62.14z"/>
	</g>
	<g>
		<path class="st0" d="M97.33,78.47L97.33,78.47c-3.92,0-7.27,2.81-7.96,6.67l-0.96,5.4c-0.89,4.96,2.93,9.51,7.96,9.51
			c3.92,0,7.27-2.81,7.96-6.67l0.96-5.4C106.18,83.02,102.37,78.47,97.33,78.47z"/>
		<path class="st0" d="M90.17,117.27c-3.9,0-7.25,2.78-7.98,6.61l-7.52,39.69c-0.95,5,2.89,9.63,7.98,9.63h0
			c3.9,0,7.25-2.78,7.98-6.61l7.52-39.69C99.1,121.9,95.26,117.27,90.17,117.27z"/>
		<path class="st0" d="M103.39,61.24c3.97,0,7.35-2.86,8.03-6.76l7.75-44.95c0.86-4.98-2.98-9.53-8.03-9.53
			c-3.97,0-7.35,2.86-8.03,6.76l-7.75,44.95C94.51,56.69,98.34,61.24,103.39,61.24z"/>
		<path class="st0" d="M84.54,4.23C84.92,2.02,83.22,0,80.98,0H48.25c-1.49,0-2.94,0.13-4.35,0.38c-0.09,0.02-0.18,0.03-0.27,0.03
			c-6.96,0.41-12.39,2.45-16.25,6.16c-4.35,4.17-6.52,9.96-6.52,17.39v38.02c0,1.04-0.45,2.03-1.23,2.71L1.23,80.89
			C0.45,81.58,0,82.57,0,83.61v0.25c0,1.04,0.45,2.03,1.23,2.71l18.41,16.2c0.78,0.69,1.23,1.67,1.23,2.71v44.08
			c0,7.42,2.17,13.22,6.52,17.39c4.35,4.17,10.65,6.25,18.9,6.25h1.97h2.6c1.74,0,3.23-1.23,3.55-2.94l9.23-48.71
			c0.42-2.22-1.28-4.28-3.55-4.28H49.96c-2.24,0-3.94-2.01-3.56-4.22l1.7-10c0.3-1.74,1.8-3.01,3.56-3.01h12.92
			c1.74,0,3.24-1.25,3.55-2.96l2.63-14.35c0.41-2.22-1.3-4.26-3.55-4.26h-10.1c-2.24,0-3.93-2.01-3.56-4.22l1.7-10
			c0.29-1.74,1.8-3.01,3.56-3.01h12.85c1.76,0,3.26-1.27,3.56-3L84.54,4.23z"/>
		<path class="st0" d="M276.77,64.1c-2.57-5.97-6.06-11.17-10.49-15.6c-4.43-4.43-9.63-7.92-15.6-10.49
			c-5.97-2.56-12.31-3.85-19.02-3.85h-39.48v20.4l12.85,11.31c1.05,0.92,2,1.93,2.85,3.01V50.95h23.78c4.29,0,8.39,0.82,12.31,2.45
			c3.92,1.63,7.41,3.94,10.49,6.92c2.98,3.08,5.29,6.57,6.92,10.49c1.63,3.92,2.45,8.02,2.45,12.31c0,4.38-0.82,8.51-2.45,12.38
			c-1.63,3.87-3.94,7.34-6.92,10.42c-3.08,2.99-6.57,5.29-10.49,6.92c-3.92,1.63-8.02,2.45-12.31,2.45h-23.78V98.57
			c-0.86,1.07-1.81,2.08-2.85,3.01l-12.85,11.31v19.19h1.14h14.57h23.78c6.71,0,13.05-1.28,19.02-3.85
			c5.97-2.56,11.17-6.06,15.6-10.49c4.43-4.43,7.92-9.63,10.49-15.6c2.56-5.97,3.85-12.31,3.85-19.02S279.33,70.07,276.77,64.1z"/>
		<path class="st0" d="M191.82,80.89l-18.41-16.2c-0.78-0.69-1.23-1.67-1.23-2.71V23.96c0-7.42-2.17-13.22-6.52-17.39
			c-4.35-4.17-10.65-6.25-18.9-6.25h-0.02c-1.26-0.2-2.56-0.32-3.88-0.32c-1.76,0-3.26,1.27-3.56,3l-9.31,54.02
			c-0.38,2.21,1.32,4.23,3.56,4.23h11.1c2.24,0,3.94,2.01,3.56,4.22l-1.7,10c-0.3,1.74-1.8,3.01-3.56,3.01h-13.84
			c-1.74,0-3.24,1.25-3.55,2.96l-2.63,14.35c-0.41,2.22,1.3,4.26,3.55,4.26h11.01c2.24,0,3.94,2.01,3.56,4.22l-1.7,10
			c-0.29,1.74-1.8,3.01-3.56,3.01h-13.82c-1.74,0-3.23,1.23-3.55,2.94l-9.23,48.71c-0.42,2.22,1.28,4.28,3.55,4.28h12.94h17.17h3.9
			c8.26,0,14.56-2.08,18.9-6.25c4.35-4.17,6.52-9.96,6.52-17.39v-44.08c0-1.04,0.45-2.03,1.23-2.71l18.41-16.2
			c0.78-0.69,1.23-1.67,1.23-2.71v-0.25C193.04,82.57,192.59,81.58,191.82,80.89z M165.68,83.89v-0.31l0.21,0.15L165.68,83.89z"/>
	</g>
</g>
</svg>
